<svg id="Vrstva_1" data-name="Vrstva 1" xmlns="http://www.w3.org/2000/svg" viewBox="0 0 144.57 25.51">
  <defs>
    <style>.cls-1{fill:#fff;}.cls-2{fill:none;stroke:#fff;stroke-miterlimit:2.63;stroke-width:0.82px;}.cls-3{fill:#ffcc07;}</style>
  </defs>
  <path class="cls-1" d="M143.32,15.41H137V12.1h5.67V10.18H137V7h6.21V5.1h-8.63V17.34h8.77ZM130.75,5.1h-2.42l.06,8.29-8-8.29h-1.52V17.34h2.42l0-8.29,8,8.29h1.49Zm-15.65,0h-2.42V17.34h2.42Zm-4.87,10.31h-5.61V5.1H102.2V17.34h8Zm-18.93,0H85V12.1h5.67V10.18H85V7h6.22V5.1H82.53V17.34H91.3Zm-11.22,0H74.47V5.1H72V17.34h8Zm-12.44-7,1.53-1.48a6.62,6.62,0,0,0-5-2c-4,0-6.73,2.49-6.73,6.25s2.71,6.32,6.75,6.32A6.46,6.46,0,0,0,69.57,15l-1.63-1.4a4.23,4.23,0,0,1-3.71,1.93,4.09,4.09,0,0,1-4.29-4.37,4.06,4.06,0,0,1,4.25-4.33,4.37,4.37,0,0,1,3.45,1.52M47.51,10.91V7h2.62A2,2,0,0,1,52.36,9c0,1.16-1,1.94-2.4,1.94Zm2.59,1.93,2.9,4.5h2.85L52.5,12.41A3.64,3.64,0,0,0,54.85,9c0-2.31-1.76-3.87-4.44-3.87H45.09V17.34h2.42v-4.5ZM41.32,5.1H38.89V17.34h2.43ZM34.5,8.39,36,6.91a6.66,6.66,0,0,0-5-2c-4,0-6.73,2.49-6.73,6.25S27,17.51,31,17.51A6.45,6.45,0,0,0,36.42,15l-1.63-1.4a4.22,4.22,0,0,1-3.71,1.93,4.09,4.09,0,0,1-4.29-4.37,4.06,4.06,0,0,1,4.26-4.33A4.37,4.37,0,0,1,34.5,8.39" />
  <path class="cls-2" d="M143.32,15.41H137V12.1h5.67V10.18H137V7h6.21V5.1h-8.63V17.34h8.77ZM130.75,5.1h-2.42l.06,8.29-8-8.29h-1.52V17.34h2.42l0-8.29,8,8.29h1.49Zm-15.65,0h-2.42V17.34h2.42Zm-4.87,10.31h-5.61V5.1H102.2V17.34h8Zm-18.93,0H85V12.1h5.67V10.18H85V7h6.22V5.1H82.53V17.34H91.3Zm-11.22,0H74.47V5.1H72V17.34h8Zm-12.44-7,1.53-1.48a6.62,6.62,0,0,0-5-2c-4,0-6.73,2.49-6.73,6.25s2.71,6.32,6.75,6.32A6.46,6.46,0,0,0,69.57,15l-1.63-1.4a4.23,4.23,0,0,1-3.71,1.93,4.09,4.09,0,0,1-4.29-4.37,4.06,4.06,0,0,1,4.25-4.33A4.37,4.37,0,0,1,67.64,8.39ZM47.51,10.91V7h2.62A2,2,0,0,1,52.36,9c0,1.16-1,1.94-2.4,1.94Zm2.59,1.93,2.9,4.5h2.85L52.5,12.41A3.64,3.64,0,0,0,54.85,9c0-2.31-1.76-3.87-4.44-3.87H45.09V17.34h2.42v-4.5ZM41.32,5.1H38.89V17.34h2.43ZM34.5,8.39,36,6.91a6.66,6.66,0,0,0-5-2c-4,0-6.73,2.49-6.73,6.25S27,17.51,31,17.51A6.45,6.45,0,0,0,36.42,15l-1.63-1.4a4.22,4.22,0,0,1-3.71,1.93,4.09,4.09,0,0,1-4.29-4.37,4.06,4.06,0,0,1,4.26-4.33A4.37,4.37,0,0,1,34.5,8.39Z" />
  <path class="cls-3" d="M14.4,10.49A4.73,4.73,0,1,1,9.68,5.76a4.72,4.72,0,0,1,4.72,4.73m3,0a7.68,7.68,0,1,0-7.67,7.68,7.67,7.67,0,0,0,7.67-7.68" />
  <rect class="cls-3" x="2.47" y="20.53" width="14.41" height="2.98" />
</svg>